<svg xmlns="http://www.w3.org/2000/svg" width="26" height="26">
  <g fill="none" fill-rule="evenodd">
    <path d="M1 1h24v24H1V1z"/>
    <path fill="#D8D8D8" d="M16.7720754 14.6791778c-.2249097-.2256886-.4741573-.4351681-.7420754-.6291778.35-.03.68-.05.97-.05 2.33 0 7 1.17 7 3.5V20h-4v-1c0-1.8816914-1.4077056-3.3230143-3.2279246-4.3208222zm-1.4385735-8.1758534C15.8098082 6.18525173 16.3827845 6 17 6c1.66 0 2.99 1.34 2.99 3s-1.33 3-2.99 3c-.6171914 0-1.1901471-.1852373-1.6664423-.5032872C15.7574832 10.76214095 16 9.909556 16 9.00006693c0-.90952896-.2425381-1.7621488-.6664981-2.49674253zM10 13c2.21 0 4-1.79 4-4s-1.79-4-4-4-4 1.79-4 4 1.79 4 4 4zm0 2c-2.67 0-8 1.34-8 4v2h16v-2c0-2.66-5.33-4-8-4z"/>
  </g>
</svg>
