<svg xmlns="http://www.w3.org/2000/svg" width="26" height="26">
  <path fill="#D8D8D8" fill-rule="evenodd" d="M8 9.3258427c0 .74157303.61643836 1.35955056 1.35616438 1.35955056.73972603 0 1.3561644-.61797753 1.3561644-1.35955056 0-1.48314607 1.6027397-1.54494382 1.78767122-1.54494382.1849315 0 1.78767123.06179775 1.78767123 1.54494382v.30898876c0 .61797753-.30821918 1.11235955-.8630137 1.42134832l-1.2328767.67977528c-.6780822.3707865-1.0479452 1.0505618-1.0479452 1.79213483v1.11235952C11.14383563 15.3820225 11.76027396 16 12.5 16c.73972603 0 1.35616438-.6179775 1.35616438-1.35955056v-.67977528l.8630137-.43258427C16.1369863 12.78651682 17 11.3033708 17 9.6966292v-.3707865C17 6.48314607 14.71917808 5 12.5 5 10.21917808 5 8 6.48314607 8 9.3258427zM12.5 17c-2 0-2 3 0 3s2-3 0-3z"/>
</svg>
