<svg xmlns="http://www.w3.org/2000/svg" width="26" height="26">
  <path fill="#D8D8D8" fill-rule="evenodd" d="M13.2608 10.57136c-.34656 0-.6536.1-.9144.3-.2608.2-.48208.4536-.66432.76432-.18208.3072-.31776.64992-.41424 1.02144-.09296.37152-.14288.73232-.14288 1.07504 0 .17136.01792.3536.0536.55008.03568.1928.10704.37136.21776.5392.1072.16416.24992.3.42496.4072.17504.1072.4072.1608.69648.1608.3928 0 .72496-.09664 1-.28944.27504-.1928.5-.43584.67504-.73216.17504-.2928.3-.61424.38224-.95696.07856-.34288.11776-.6608.11776-.94656 0-.22864-.02144-.4536-.06416-.67856-.04288-.22144-.11776-.42144-.22864-.60352-.1072-.17856-.25712-.32496-.4464-.43936-.18576-.11424-.41776-.17152-.6928-.17152zm6.31728 7.30144c.26864.28944.26864.75888-.02672 1.02048-.73888.6528-1.58208 1.14752-2.52992 1.48176C15.8464 20.7928 14.6072 21 13.30352 21c-1.24656 0-2.38224-.19648-3.40352-.5928-1.02144-.3928-1.89648-.94304-2.61792-1.6464-.72496-.70352-1.28576-1.54656-1.68576-2.52864C5.19648 15.24992 5 14.17856 5 13.01792c0-1.14656.21792-2.2072.6536-3.18224.43568-.97504 1.02848-1.82144 1.78208-2.53936.7536-.71776 1.63216-1.27856 2.64288-1.68928C11.08208 5.20352 12.16064 5 13.30352 5c.9856 0 1.94288.14288 2.86784.42864.92864.28576 1.75008.71776 2.468 1.28928.71776.57504 1.28928 1.28928 1.71776 2.14992C20.78576 9.72864 21 10.73936 21 11.9c0 .86064-.11776 1.62144-.35712 2.27856-.2392.66064-.55696 1.21072-.95696 1.65712-.4.4464-.8536.7784-1.368 1-.51424.22144-1.05344.332-1.61776.332-.57856 0-1.04288-.13568-1.3928-.40704-.3464-.27152-.52144-.61792-.52144-1.03216h-.1072c-.21776.34288-.55008.67136-1 .97856-.44992.3072-1 .46416-1.6536.46416-.98576 0-1.7464-.32144-2.28224-.96784-.53568-.6464-.80352-1.48224-.80352-2.51776 0-.60368.1-1.19648.30352-1.78576s.49296-1.11072.86784-1.57136c.37504-.45712.82496-.82864 1.3464-1.1072.52144-.27856 1.1-.41776 1.73936-.41776.55008 0 1.0144.11424 1.3928.34288.37504.22864.6216.51072.73936.83936h.02144l.0328-.16064c.07856-.38672.46192-.7.85648-.7h.5072c.39472 0 .64864.3128.56752.69888l-.70672 3.36896c-.02864.2-.068.42144-.11792.66784-.04992.24304-.07504.47152-.07504.68944 0 .24288.04656.4464.14304.61424.0928.16432.27856.24656.55344.24656.56432 0 1.03216-.30016 1.40368-.90352.36784-.60352.55344-1.41072.55344-2.42864 0-.86064-.1464-1.62496-.43568-2.28928-.28944-.66784-.69296-1.22496-1.2072-1.67856-.51424-.44992-1.12864-.7928-1.83584-1.02144-.71056-.22864-1.4856-.34288-2.3248-.34288-.9144 0-1.75008.16064-2.51072.48224-.7608.32144-1.41072.76784-1.94656 1.33216-.53568.56784-.95344 1.23216-1.24992 2-.3.76432-.44992 1.59296-.44992 2.48224 0 .9464.15712 1.8.46784 2.56064.31072.76064.75008 1.4072 1.31424 1.9464.56416.5392 1.23936.95008 2.02144 1.23584.78224.2856 1.6464.42848 2.58576.42848 1.17504 0 2.18576-.1856 3.03216-.56064.63648-.2792 1.23424-.64144 1.79424-1.08464.30896-.24464.75888-.23104 1.02752.05824l.22752.24512z"/>
</svg>
