<?xml version="1.0" encoding="UTF-8" standalone="no"?>
<svg width="21px" height="25px" viewBox="0 0 21 25" version="1.1" xmlns="http://www.w3.org/2000/svg" xmlns:xlink="http://www.w3.org/1999/xlink" xmlns:sketch="http://www.bohemiancoding.com/sketch/ns">
    <!-- Generator: Sketch 3.3.3 (12081) - http://www.bohemiancoding.com/sketch -->
    <title>interface_-_open_incoming_link_download_2_</title>
    <desc>Created with Sketch.</desc>
    <defs></defs>
    <g id="Page-1" stroke="none" stroke-width="1" fill="none" fill-rule="evenodd" sketch:type="MSPage">
        <g id="upload" sketch:type="MSLayerGroup" transform="translate(-2.000000, 0.000000)">
            <g id="interface_-_open_incoming_link_download_2_" sketch:type="MSShapeGroup">
                <rect id="Rectangle-1" x="0" y="0" width="25" height="25"></rect>
                <path d="M3.00211823,0 C2.06461823,0 2,0.0454420447 2,0.982942045 L2,17.96875 C2,18.90625 2.06461823,19.0165443 3.00211823,19.0165443 L7,19.0165443 L7,18.0325928 L4.01171875,18.0325928 C3.38671875,18.0325928 3.00211823,17.5 3.00211823,17.03125 L3.00211823,2.03125 C3.00211823,1.40625 3.47086823,0.982942045 3.93961823,0.982942045 L21.0625,0.982942045 C21.6875,0.982942045 22,1.5625 22,2.03125 L22,17.03125 C22,17.65625 21.53125,18.0325928 21.0625,18.0325928 L17.9898968,17.96875 L17.9898968,19.0165443 L22,19.0165443 C22.78125,19.0165443 22.976181,18.90625 22.976181,17.96875 L22.976181,0.982942045 C22.819931,0.0454420447 22,0 22,0 L3.00211823,0 Z M12.9375,6.09375 C12.78125,5.9375 12.625,5.9375 12.46875,5.9375 C12.3125,5.9375 12.15625,5.9375 12.15625,6.25 L8.25,10 C7.9375,10.15625 7.9375,10.625 8.25,10.78125 C8.40625,10.9375 8.71875,10.9375 9.03125,10.78125 L12,7.8125 L12,24.53125 C12,24.84375 12.15625,25 12.46875,25 C12.78125,25 12.9375,24.84375 12.9375,24.53125 L12.9375,7.8125 L16.0625,10.9375 C16.21875,11.09375 16.6875,11.09375 16.84375,10.9375 C17,10.78125 17,10.3125 16.84375,10.15625 L12.9375,6.09375 L12.9375,6.09375 Z" id="Shape" opacity="0.2" fill="#FFFFFF"></path>
            </g>
        </g>
    </g>
</svg>